<?xml version="1.0" encoding="UTF-8" standalone="no"?>
<svg xmlns="http://www.w3.org/2000/svg"
     xmlns:svg="http://www.w3.org/2000/svg"
     version="1.1"
     width="0.666667in" height="0.666667in"
     viewBox="0 0 200 200">
  <path id="Unnamed copy"
        fill="#fef1e7" stroke="black" stroke-width="1"
        d="M 96.40,170.91
           C 141.86,168.84 139.53,147.71 138.48,137.04
             135.77,122.57 119.95,110.68 118.21,99.76
             115.58,89.18 108.19,84.97 101.29,84.72
             96.14,84.46 90.70,86.21 86.47,99.92
             80.67,121.37 67.37,117.17 63.77,138.12
             61.87,148.96 61.25,171.97 96.40,170.91 Z" />
  <path id="Unnamed"
        fill="white" stroke="black" stroke-width="1"
        d="M 89.68,127.96
           C 99.18,128.28 101.50,123.86 101.75,116.34
             102.00,108.82 96.88,105.47 92.70,105.83
             88.52,106.19 85.97,113.23 84.84,116.62
             83.71,120.01 83.72,127.66 89.68,127.96 Z
           M 114.60,124.15
           C 117.96,124.57 118.83,119.97 119.25,116.40
             119.06,113.94 116.75,103.57 115.57,103.94
             116.63,102.67 108.28,100.66 106.09,103.30
             105.12,105.01 105.30,109.26 104.97,113.43
             104.83,117.63 107.21,120.41 108.49,121.81
             110.51,123.41 111.66,123.46 114.60,124.15 Z" />
  <path id="Unnamed #2"
        fill="black" stroke="black" stroke-width="1"
        d="M 112.74,117.07
           C 112.74,117.07 114.45,116.76 115.12,118.64
             115.21,119.39 115.06,120.64 113.65,120.85
             112.42,121.08 111.43,120.53 111.31,118.82
             111.43,117.65 112.74,117.07 112.74,117.07 Z
           M 94.31,119.36
           C 94.31,119.36 96.02,119.05 96.68,120.92
             96.77,121.68 96.63,122.93 95.22,123.14
             93.98,123.37 93.00,122.82 92.87,121.10
             93.00,119.94 94.31,119.36 94.31,119.36 Z" />
</svg>
